<?xml version="1.0" standalone="no"?>
<!DOCTYPE svg PUBLIC "-//W3C//DTD SVG 20010904//EN"
 "http://www.w3.org/TR/2001/REC-SVG-20010904/DTD/svg10.dtd">
<svg version="1.0" xmlns="http://www.w3.org/2000/svg"
 width="513.000000pt" height="513.000000pt" viewBox="0 0 513.000000 513.000000"
 preserveAspectRatio="xMidYMid meet">
<metadata>
Created by potrace 1.11, written by Peter Selinger 2001-2013
</metadata>
<g transform="translate(0.000000,513.000000) scale(0.100000,-0.100000)"
fill="#000000" stroke="none">
<path d="M2314 5116 c-306 -50 -595 -236 -774 -497 -66 -96 -162 -286 -212
-416 l-32 -85 -76 4 c-92 6 -151 32 -225 99 -68 63 -82 94 -64 150 8 23 25 51
39 61 37 27 155 47 325 56 l150 7 -115 39 c-89 30 -135 40 -205 43 -192 10
-363 -64 -416 -182 -24 -52 -24 -82 2 -130 73 -140 236 -214 465 -215 l102 0
4 -122 c3 -106 8 -131 30 -178 14 -30 36 -67 50 -81 27 -29 77 -64 82 -58 3 2
-7 31 -21 63 -56 133 -83 328 -50 368 6 8 53 25 102 38 254 65 437 148 628
284 64 47 117 83 117 80 0 -6 -189 -332 -262 -453 -68 -111 -194 -283 -354
-481 -228 -284 -318 -417 -413 -611 l-67 -135 -29 18 c-44 26 -96 23 -124 -6
-47 -50 -37 -163 20 -210 16 -14 29 -32 29 -40 0 -20 5 -20 -65 4 -32 11 -69
20 -82 20 -20 0 -24 -4 -21 -26 2 -20 18 -35 66 -65 35 -21 69 -40 75 -42 7
-2 -17 -35 -52 -72 -77 -83 -111 -150 -111 -223 0 -65 17 -108 65 -161 30 -33
44 -41 71 -41 33 0 34 -2 34 -38 0 -21 -8 -62 -19 -92 -10 -30 -22 -80 -25
-111 l-7 -56 41 -18 c47 -21 144 -121 164 -168 7 -18 16 -81 19 -140 4 -59 12
-117 17 -127 7 -14 7 -25 -2 -39 -9 -15 -8 -28 10 -70 l21 -50 -49 -35 c-99
-71 -158 -188 -147 -289 4 -27 20 -74 38 -106 137 -244 381 -387 733 -431 143
-18 463 -7 703 24 190 25 258 42 369 91 70 31 78 31 101 1 10 -13 55 -67 100
-120 45 -53 89 -106 97 -117 10 -15 19 -18 30 -12 14 7 7 23 -42 103 -32 52
-76 120 -99 150 l-41 56 97 47 c187 90 345 212 455 349 170 211 257 433 260
658 1 161 -34 269 -135 415 -101 146 -242 255 -404 312 -76 26 -89 28 -265 28
-146 0 -199 -4 -250 -18 -98 -26 -218 -88 -278 -142 -47 -42 -142 -162 -142
-179 0 -3 42 24 93 62 129 95 150 107 256 142 178 60 312 52 461 -26 228 -119
331 -334 300 -630 -29 -284 -130 -503 -317 -686 -70 -68 -216 -178 -237 -178
-7 0 -30 19 -51 41 -246 257 -736 521 -1072 578 l-103 17 -29 46 -29 45 15 74
c11 53 34 110 80 197 66 126 82 142 138 142 13 0 26 3 28 8 5 6 -24 194 -38
252 -4 14 11 -1 35 -37 135 -202 385 -318 650 -299 203 14 313 83 387 244 18
40 33 75 33 78 0 3 -22 -21 -48 -53 -98 -117 -161 -157 -281 -179 -93 -16
-252 -18 -323 -3 -142 30 -280 140 -369 296 l-30 52 27 47 c41 70 48 150 19
225 -5 13 7 18 72 28 328 51 656 202 918 421 l90 75 100 -6 c197 -13 645 -9
758 6 186 25 330 76 432 155 50 38 125 130 107 130 -5 0 -42 -11 -82 -25 -204
-69 -458 -79 -858 -31 -123 14 -225 26 -228 26 -2 0 18 33 45 74 243 360 332
751 266 1171 -68 433 -365 732 -827 831 -100 21 -323 27 -424 10z m187 -161
c287 -50 496 -192 627 -425 45 -79 100 -252 117 -367 54 -359 -36 -709 -262
-1010 l-74 -100 -97 -6 c-183 -11 -399 -66 -537 -134 -178 -89 -353 -252 -424
-394 -23 -45 -41 -88 -41 -95 0 -8 -4 -14 -8 -14 -11 0 -52 39 -52 50 0 5 -7
16 -16 24 -14 15 -14 17 3 23 10 3 28 16 39 27 12 12 32 28 43 36 42 29 50
151 15 208 -22 34 -58 45 -99 28 -33 -14 -34 -14 -40 12 -9 42 11 160 45 266
17 52 89 213 162 358 95 191 563 1220 635 1396 4 8 -6 12 -29 12 -30 0 -41 -8
-94 -72 -100 -122 -275 -298 -359 -361 -43 -32 -133 -85 -200 -118 -114 -56
-344 -139 -429 -154 l-39 -8 7 29 c26 104 116 264 210 374 120 141 354 315
500 371 149 58 254 69 397 44z m139 -2168 c0 -2 -29 -27 -65 -55 -100 -81
-255 -179 -357 -226 -83 -39 -267 -106 -290 -106 -22 0 53 111 117 175 116
116 273 183 490 208 43 6 105 8 105 4z m-1202 -1329 c13 -26 16 -160 7 -265
l-7 -72 -35 27 -34 27 4 100 c4 95 29 205 46 205 4 0 13 -10 19 -22z m341
-553 c124 -19 352 -73 483 -116 167 -54 352 -165 498 -298 36 -32 62 -62 58
-66 -16 -17 -203 -90 -309 -120 -405 -117 -772 -110 -1044 19 -158 75 -264
174 -281 262 -9 48 27 117 100 190 69 68 142 108 237 128 85 19 131 19 258 1z"/>
</g>
</svg>
