<?xml version="1.0" encoding="utf-8"?>
<!-- Generator: Adobe Illustrator 24.1.3, SVG Export Plug-In . SVG Version: 6.00 Build 0)  -->
<svg version="1.1" id="logo_x5F_podstawa" xmlns="http://www.w3.org/2000/svg" xmlns:xlink="http://www.w3.org/1999/xlink" x="0px"
	 y="0px" viewBox="0 0 172.9 161.6" style="enable-background:new 0 0 172.9 161.6;" xml:space="preserve">
<style type="text/css">
	.st0{fill:none;stroke:#1D1D1B;stroke-width:0.9383;stroke-miterlimit:10;}
	.st1{fill:#1D1D1B;}
	.st2{display:none;}
</style>
<path class="st0" d="M55.9,152c10.8,5.4,22.9,8.5,35.8,8.5c44.1,0,79.8-35.7,79.8-79.8S135.8,0.9,91.7,0.9c-9.9,0-19.3,1.8-28.1,5.1
	"/>
<path class="st0" d="M85.6,129.1c2.1,0.3,4,0.4,6.2,0.4c26.9,0,48.8-21.9,48.8-48.8s-21.9-48.8-48.8-48.8c-2.6,0-5.3,0.2-7.8,0.7"/>
<g>
	<path class="st1" d="M105.8,24.4c-1.7,1.5-4.4,2.1-8,1.6c-0.2,0-0.6-0.1-1.1-0.2c-0.6-0.1-1.3-0.2-2.3-0.3
		c-0.9-0.1-1.8-0.3-2.4-0.4c-0.8-0.1-1.3-0.2-1.9-0.3L89,24.6v-0.4c0.6,0,1.4,0,2.5-0.2c0.5-0.1,0.8-0.3,1-0.5s0.4-0.8,0.5-1.5
		s0.2-1.3,0.4-2.1c0.1-0.8,0.2-1.5,0.3-2.3l0.4-2.8c0.1-0.8,0.2-1.6,0.3-2.3c0.1-0.8,0.1-1.4,0.2-2.1c0.1-0.8,0-1.3-0.1-1.5
		c-0.1-0.3-0.4-0.5-0.8-0.8c-0.5-0.3-1.3-0.5-2.4-0.8l0.1-0.4l6.1,0.8c1.6,0.2,2.9,0.4,4,0.6c1.1,0.2,2,0.4,2.6,0.5
		c0.3,0.1,0.6,0.2,0.8,0.5c1.1,1.1,2,2.4,2.6,3.9c0.8,1.9,1.1,3.8,0.8,5.7C108,21.6,107.2,23.2,105.8,24.4z M104.3,13.2
		c-0.9-1.8-2-3-3.1-3.8c-0.3-0.1-0.7-0.2-1.1-0.3C99.6,9,99,8.9,98.2,8.8l-0.8-0.1c-0.4,2.6-0.8,5.1-1,7.2l-0.3,2
		c-0.2,1.5-0.4,2.8-0.5,4s-0.2,2.3-0.3,3.2c0.4,0.1,0.7,0.1,0.8,0.2c0.2,0,0.4,0.1,0.5,0.1c2.2,0.3,3.9,0,5.5-0.9
		c1.9-1,3-2.8,3.3-5.3C105.8,17.3,105.5,15.3,104.3,13.2z"/>
	<path class="st1" d="M118,30.6c-1.3,0.7-2.9,0.6-4.9-0.3c-2-0.8-3.1-2-3.6-3.3c-0.4-1.3-0.2-3,0.7-5c0.9-2.3,2.2-3.6,3.6-4.1
		c1.2-0.4,2.7-0.3,4.4,0.5s2.9,1.7,3.4,2.8c0.7,1.4,0.5,3.2-0.5,5.4C120.4,28.7,119.3,30,118,30.6z M117.9,19
		c-2.2-0.9-4,0.5-5.5,4.1c-1.5,3.7-1.1,5.9,1,6.8c2.2,0.8,4-0.5,5.5-4.1C120.5,22.1,120.2,19.8,117.9,19z"/>
	<path class="st1" d="M118.2,32.2l0.2-0.3c0.6,0.3,1.1,0.5,1.8,0.7c0.6,0.2,1.1-0.1,1.5-0.7c0.7-0.9,1.2-1.8,1.6-2.3l4-6.3
		c0.4-0.6,0.8-1.4,1.5-2.4c0.4-0.6,0.4-1.1,0-1.6c-0.1-0.2-0.3-0.4-0.6-0.6c-0.2-0.2-0.5-0.5-0.8-0.8l0.2-0.3l4.3,2.8
		c-0.6,0.8-1.5,2.2-2.7,4.1l-4,6.3c-0.4,0.6-0.7,1-0.9,1.5c-0.3,0.4-0.5,0.8-0.6,0.9c-0.4,0.7-0.3,1.1,0,1.6
		c0.2,0.2,0.4,0.5,0.7,0.7s0.5,0.5,0.8,0.7l-0.2,0.3L118.2,32.2z"/>
	<path class="st1" d="M124.9,36.4l0.2-0.3c0.3,0.2,0.6,0.4,0.8,0.5c0.3,0.1,0.6,0.3,0.8,0.4c0.5,0.2,1,0.1,1.5-0.5
		c0.2-0.2,0.5-0.5,0.8-0.8c0.3-0.4,0.7-0.8,1.1-1.3l1.6-1.9c0.5-0.5,0.8-0.9,1.1-1.3c0.3-0.4,0.6-0.7,0.7-0.8
		c0.5-0.6,0.5-1.1,0.2-1.6c-0.1-0.2-0.3-0.5-0.5-0.8s-0.4-0.6-0.7-0.8l0.2-0.3l3.8,3.4c-0.6,0.7-1.7,1.9-3.3,3.7l-1.6,1.9
		c-0.5,0.6-1,1.3-1.8,2.2c-0.5,0.6-0.5,1-0.2,1.6s0.7,1,1.1,1.5l-0.2,0.3L124.9,36.4z M137.4,27.5c0-0.1,0-0.3-0.1-0.5
		c0-0.2-0.1-0.5-0.1-0.8c-0.1-0.6-0.1-0.9,0-1.2c0.4-0.1,0.7-0.2,1.1-0.2c0.4,0,0.8,0,1.3,0c0.1,0.5,0.2,0.9,0.2,1.4
		c0,0.4,0,0.8,0,1.1C139,27.5,138.1,27.6,137.4,27.5z"/>
	<path class="st1" d="M136.2,48.1l0.3-0.2c0.5,0.5,0.9,0.9,1.5,1.3c0.5,0.3,0.9,0.3,1.5-0.2c0.9-0.7,1.7-1.2,2.3-1.6l0.5-0.4
		c1.7-1.3,2.8-2.5,3.4-3.6c0.5-1,0.4-2-0.4-3c-0.6-0.8-1.4-1.3-2.5-2c-0.4,0.3-0.8,0.6-1.2,0.9c-0.5,0.4-1,0.8-1.6,1.2l-2,1.4
		c-0.6,0.4-1,0.8-1.4,1c-0.4,0.3-0.7,0.6-0.8,0.7c-0.6,0.5-0.8,0.9-0.6,1.5c0.1,0.3,0.2,0.6,0.4,0.8c0.2,0.3,0.3,0.6,0.5,0.8
		l-0.3,0.2l-4.7-6.3l0.3-0.2c0.5,0.5,0.9,0.8,1.4,1.2c0.5,0.4,1,0.3,1.6-0.1c0.9-0.7,1.8-1.2,2.3-1.6l2-1.4c0.6-0.5,1.3-1,2.3-1.8
		c0.6-0.5,0.8-0.9,0.6-1.5c-0.1-0.3-0.2-0.6-0.3-0.8c-0.1-0.3-0.3-0.6-0.5-0.9l0.3-0.2l3.1,4.1l-0.7,0.5c1.4,0.8,2.4,1.6,3.1,2.4
		c1.2,1.6,1.6,3,1.1,4.3c-0.4,1-1.3,2.1-2.9,3.2l-1.3,0.9c-0.5,0.3-0.8,0.7-1.2,0.9c-0.4,0.3-0.8,0.6-1,0.8
		c-0.6,0.5-0.8,0.9-0.6,1.5c0.1,0.3,0.2,0.7,0.3,0.9c0.1,0.3,0.3,0.6,0.5,0.8l-0.3,0.2L136.2,48.1z"/>
	<path class="st1" d="M143.8,62.2c-0.1-0.4,0-0.7,0.4-0.8c0.2-0.1,0.3-0.2,0.5-0.3c0.2-0.1,0.4-0.3,0.6-0.4
		c-0.8,0.1-1.4-0.1-2.1-0.7c-0.7-0.5-1.1-1-1.4-1.8c-0.5-1.2-0.6-2.3-0.3-3.2c0.3-0.9,1-1.6,2.2-2.2c1.3-0.6,2.5-0.4,3.8,0.6
		c0.9,0.8,1.7,1.8,2.3,3c0.1,0.1,0.1,0.3,0.2,0.5c0.1,0.2,0.1,0.3,0.1,0.5l1.1-0.9c1-0.8,1.6-1.4,1.9-1.8c0.4-0.5,0.4-1,0.2-1.6
		c-0.3-0.8-0.8-1.4-1.2-2l0.3-0.2c0.8,0.9,1.4,2,1.9,2.9c0.3,0.8,0.4,1.4,0.3,2.1c-0.2,0.7-0.7,1.4-1.5,2.1l-5.5,4.2
		c-0.8,0.6-1.2,1-1.5,1.4c-0.3,0.5-0.4,1.1-0.1,1.8l-0.4,0.1L143.8,62.2z M149.4,57.6c0-0.4-0.1-0.7-0.2-0.9c-0.4-0.9-1-1.6-1.9-1.9
		c-0.9-0.4-1.8-0.3-2.6,0.1c-1,0.5-1.7,1-1.9,1.9c-0.2,0.7-0.2,1.3,0.1,2c0.3,0.8,0.8,1.2,1.3,1.4c0.6,0.2,1.2,0.2,2-0.1
		c0.3-0.1,0.7-0.3,0.9-0.6L149.4,57.6z"/>
	<path class="st1" d="M146.3,75.7c-0.2-1.9-0.1-3.7,0.3-5.3c0.7-0.1,1.3-0.2,2.3-0.3c0.8-0.1,1.9-0.2,3-0.4l0.1,0.4
		c-1.9,0.5-3.2,1.1-3.9,1.9c-0.8,0.8-1.2,2.1-1.1,3.7c0.2,2.6,1.4,3.8,3.6,3.6c0.9-0.1,1.8-0.6,2.4-1.5c0.3-0.4,0.6-0.8,0.8-1.4
		c0.3-0.6,0.6-1.2,0.9-2.1c0.6-1.5,1.2-2.6,1.8-3.3c0.8-0.9,1.7-1.4,2.9-1.5c1.5-0.1,2.7,0.4,3.7,1.5c0.8,1,1.3,2.5,1.5,4.6
		c0,0.3,0,0.6,0,0.9c0,0.4,0,0.7-0.1,1.1c0,0.4-0.1,0.7-0.1,0.9c0,0.2,0,0.4,0,0.5c0,0.4,0.1,0.7,0.2,0.8c-0.9,0.1-1.9,0.1-2.8,0.2
		s-1.9,0.1-2.7,0.2l-0.1-0.4c3.5-0.8,5.2-2.4,5-4.8s-1.3-3.7-3.4-3.5c-0.8,0.1-1.6,0.4-2.2,0.9c-0.7,0.7-1.3,2-2.1,3.8
		c-0.6,1.6-1.2,2.8-2,3.6c-0.8,0.9-1.8,1.4-2.8,1.5C148.3,81.8,146.7,79.8,146.3,75.7z"/>
	<path class="st1" d="M144.9,96.3c0-0.5,0.1-0.9,0.2-1.3c0.2-1,0.7-1.9,1.4-2.6c0.6-0.5,1.5-1.1,2.9-1.8l3.8-2l0.2,0.1
		c0.3,1.3,0.8,2.4,1.3,3.6c0.7,1.1,1.3,1.7,2,1.8c0.6,0.1,0.9-0.4,1.1-1.4l0.4,0.1l-0.8,5.3L157,98c0-0.7-0.1-1-0.2-1.3
		c-0.2-0.5-0.5-1-0.9-1.7c-0.3-0.4-0.5-0.7-0.7-1c-0.2-0.4-0.5-0.7-0.7-1c-0.3-0.6-0.7-1.2-1-2.2l-3.3,1.9c-1.5,0.8-2.7,1.7-3.4,2.3
		c-0.8,0.8-1.4,1.8-1.6,2.7l-0.4-0.1C144.8,97.2,144.8,96.7,144.9,96.3z M147.4,82l0.4,0.1c0,0.7,0,1.2,0.1,1.9
		c0.1,0.6,0.5,0.9,1.1,1.1c1.1,0.3,2.1,0.4,2.8,0.6l7.4,1.2c0.8,0.1,1.7,0.3,2.8,0.4c0.7,0.1,1.1-0.1,1.4-0.7
		c0.1-0.2,0.3-0.5,0.4-0.8c0.1-0.3,0.3-0.7,0.4-1l0.4,0.1l-0.8,5.1c-0.9-0.2-2.5-0.5-4.9-0.8l-7.4-1.2c-0.7-0.1-1.2-0.2-1.7-0.3
		c-0.5-0.1-0.8-0.1-1.1-0.2c-0.7-0.1-1.2,0.2-1.5,0.7c-0.1,0.3-0.3,0.6-0.4,0.8c-0.1,0.3-0.2,0.6-0.3,0.9l-0.4-0.1L147.4,82z"/>
	<path class="st1" d="M149,110.2c0.1,0,0.3,0,0.4,0.1c0.1,0,0.2,0,0.4,0c0.5,0,0.8,0,0.9-0.2c0.4-0.5,0.8-1.1,0.9-1.9
		c0.3-0.9,0.1-1.8-0.6-2.7l-3.8-1.6c-0.7-0.3-1.1-0.5-1.6-0.7s-0.8-0.3-1-0.4c-0.7-0.2-1.2-0.1-1.6,0.3c-0.2,0.2-0.4,0.5-0.6,0.8
		c-0.2,0.3-0.4,0.6-0.6,0.8l-0.4-0.1l3-7.2l0.4,0.1c-0.2,0.6-0.3,1.2-0.3,1.9s0.3,1,0.8,1.3c1,0.5,2,0.8,2.6,1.1l2.3,0.9
		c0.7,0.3,1.5,0.7,2.6,1c0.7,0.2,1.1,0.1,1.5-0.3c0.2-0.2,0.4-0.5,0.6-0.7c0.2-0.3,0.4-0.6,0.6-0.8l0.4,0.1l-2,4.7l-0.8-0.3
		c-0.3-0.1-0.5-0.3-0.8-0.4c-0.2-0.1-0.5-0.2-0.7-0.3c1.1,1.6,1.4,2.9,1.1,3.9c-0.2,0.4-0.3,0.8-0.5,1s-0.3,0.7-0.5,0.9l-3.1-1.1
		L149,110.2z"/>
	<path class="st1" d="M136.4,117.1c-0.6-0.5-1.1-0.9-1.8-1.5l6-8.9l0.7,0.1c0.4,1.2,0.8,2.3,1,3.3c0.3,0.9,0.6,1.8,0.8,2.5l1,3
		c0.2,0.5,0.4,1,0.6,1.8c0.2,0.8,0.6,1.6,0.9,2.7l1.1-1.7c1.1-1.7,1.6-2.9,1.6-3.8c-0.1-0.8-0.7-1.8-1.8-3.1l0.3-0.3
		c0.7,0.6,1.2,1.1,1.9,1.6c0.6,0.6,1.2,1,1.8,1.5c-0.3,0.2-0.6,0.4-0.8,0.7c-0.1,0.1-0.3,0.4-0.6,0.8c-0.3,0.4-0.7,1-1.1,1.7l-3.3,5
		l-0.6-0.2L141,113c-0.2-0.4-0.4-0.9-0.6-1.6c-0.3-0.7-0.6-1.5-0.9-2.4l-1.5,2.3c-1.1,1.7-1.7,3-1.5,4c0.1,0.7,0.7,1.7,1.8,3
		l-0.3,0.3C137.7,118.1,137,117.7,136.4,117.1z"/>
	<path class="st1" d="M127.9,122.4c0.3-0.3,0.6-0.3,0.9,0c0.2,0.1,0.3,0.2,0.5,0.3s0.4,0.3,0.6,0.4c-0.4-0.7-0.4-1.4-0.2-2.2
		s0.6-1.4,1.2-2c0.9-0.9,1.9-1.4,2.9-1.4c0.9-0.1,1.9,0.4,2.7,1.2c0.9,1,1.2,2.3,0.8,3.7c-0.4,1.1-1,2.3-2,3.2
		c-0.1,0.1-0.2,0.2-0.4,0.3c-0.1,0.1-0.3,0.2-0.4,0.3l1.2,0.8c1.1,0.7,1.9,1,2.3,1.1c0.6,0.1,1.1,0,1.5-0.4c0.6-0.6,1-1.2,1.3-1.9
		l0.3,0.2c-0.6,1.1-1.3,2.1-2.1,2.8c-0.6,0.6-1.2,0.9-1.8,1c-0.8,0.1-1.5-0.1-2.4-0.7l-5.9-3.7c-0.8-0.5-1.4-0.8-1.9-0.8
		c-0.6-0.1-1.1,0.1-1.7,0.6l-0.3-0.3L127.9,122.4z M134.3,125.9c0.4-0.2,0.6-0.4,0.8-0.6c0.8-0.8,1.1-1.5,1-2.4c0-0.9-0.4-1.8-1-2.4
		c-0.8-0.8-1.6-1.2-2.4-1.1c-0.7,0.1-1.3,0.4-1.8,0.8c-0.6,0.6-0.8,1.1-0.8,1.8s0.3,1.2,0.8,1.8c0.3,0.3,0.6,0.5,0.8,0.7
		L134.3,125.9z"/>
	<path class="st1" d="M120.7,127.3c1.7-1.1,3.2-1.5,4.3-0.9c0.8,0.3,1.8,1.4,2.9,3.1l1,1.5c0.4,0.6,0.9,1.3,1.7,2.3
		c0.4,0.6,0.8,0.8,1.4,0.7c0.6-0.2,1.2-0.4,1.8-0.8l0.2,0.3l-2.4,1.7c0.2,0.5,0.4,0.9,0.6,1.4c0.2,0.5,0.4,0.9,0.6,1.4
		c-0.4,0.6-0.8,1-1.1,1.3c-0.2-0.4-0.5-0.8-0.8-1.3s-0.7-1-0.9-1.6c-0.8,0.6-1.5,1.1-2.2,1.6c-0.6,0.5-1.1,0.8-1.5,1.1l-0.2-1
		c0.6-0.3,1.1-0.7,1.8-1c0.6-0.4,1.2-0.8,1.8-1.1c-0.5-0.7-0.8-1.3-1.3-2c-0.4-0.7-0.8-1.2-1.2-1.8l-0.3-0.5
		c-1.4-2.2-2.6-3.4-3.4-3.8c-0.9-0.5-2-0.4-3,0.3c-0.2,0.2-0.5,0.3-0.7,0.5s-0.4,0.3-0.6,0.5l-0.3-0.5
		C119.5,128.2,120.1,127.7,120.7,127.3z"/>
	<path class="st1" d="M110.4,134.2c0.5-1.4,1.6-2.5,3.6-3.4c2-0.8,3.6-0.9,4.9-0.4c1.2,0.6,2.3,1.9,3.2,3.8c0.9,2.2,1.1,4,0.6,5.4
		c-0.6,1.1-1.6,2.2-3.4,2.9c-1.7,0.8-3.2,0.9-4.4,0.6c-1.5-0.5-2.7-1.9-3.7-4C110.3,137.2,110,135.5,110.4,134.2z M119,142.1
		c2.2-0.9,2.4-3.3,0.8-6.8c-1.7-3.6-3.6-4.9-5.7-3.8c-2.2,1-2.4,3.3-0.8,6.8S116.8,143,119,142.1z M121.9,143.3l0.5,0.2l-1.8,6.2
		l-1.7-0.7L121.9,143.3z"/>
	<path class="st1" d="M89.9,148.3c0.3-0.1,0.4-0.3,0.6-0.5c0.1-0.3,0.2-0.7,0.2-1.2c0.1-2.7,0.6-5.1,1.3-7c0.2-0.5,0.9-1.8,2.1-3.8
		l1.2-0.2c0.7,0.7,1.1,1.2,1.6,1.8c0.5,0.5,0.8,0.9,1,1.3c0.8,1.2,1.5,2.5,2,4c0.1-0.9,0.3-1.8,0.6-2.6c0.3-0.8,0.6-1.6,0.8-2.3
		c0-0.1,0.6-1,1.8-3.1l1.2-0.2c0.7,0.7,1.1,1.2,1.6,1.7s0.8,0.9,1,1.3c1,1.5,1.9,3.4,2.4,5.6c0.3,0.8,0.5,1.5,0.7,1.9
		s0.5,0.6,0.8,0.7c0.2,0,0.6,0.1,1,0.1v0.4l-6.3,0.8v-0.4c0.4-0.1,0.7-0.2,0.8-0.4c0.3-0.1,0.4-0.2,0.6-0.3c0.4-0.4,0.5-0.8,0.4-1.5
		c0-0.1,0-0.2-0.1-0.3c0-0.1-0.1-0.2-0.1-0.4c-0.8-2.9-2.3-5.5-4.3-7.8c-0.9,1.4-1.5,3-1.9,4.8c-0.4,1.5-0.4,3-0.3,4.4
		c0.1,0.9,0.6,1.5,1.2,1.7c0.2,0,0.6,0.1,1,0.1v0.4l-6.4,0.8v-0.4c0.7-0.2,1.1-0.5,1.3-0.7c0.4-0.4,0.5-0.8,0.5-1.5
		c0-0.1,0-0.2-0.1-0.3S98,145,98,144.8c-0.8-2.9-2.3-5.5-4.3-7.8c-0.9,1.4-1.5,3-1.9,4.8c-0.4,1.5-0.4,3-0.3,4.4
		c0.1,1,0.6,1.6,1.2,1.7c0.2,0.1,0.6,0.1,1,0.1v0.4l-5.2,0.7v-0.4C89.2,148.6,89.6,148.5,89.9,148.3z"/>
</g>
<path class="st2" d="M112.8-29.1c-3.8,1.6-7.9,2.5-12.1,2.7c-4.5,0.2-8.8,0.1-12.8-0.4c-3.3-0.3-6.9-0.6-11.1-1.1
	c1.6-2.4,3-4.8,4.3-7.3c4.1-8.1,6-16.7,5.7-25.4c-0.1-3-0.5-6.1-1.1-9.2c-2-10.1-7.5-17.6-16.5-22.1c-5.7-3-11.8-4.4-18-4.2
	c-9.6,0.3-18,4.3-25,11.8c-4.5,4.8-8.3,12.2-11.3,22c-0.4,0-0.7,0.1-1.1,0.1c-2.6,0.1-4.9-0.5-6.7-1.7c-3.1-2-4.5-3.9-4.3-5.6
	C3-71,3.5-72,4.4-72.6c1.5-1,5.7-1.7,12.4-1.9l2.3-0.1l-2.2-0.8c-3.2-1.2-5.9-1.9-8.2-2c-2.4-0.1-5.1,0.5-8.2,1.9
	c-1.7,0.8-3,1.9-4,3.4c-1.2,1.8-1.3,3.6-0.4,5.3c2.6,4.9,8,7.2,16.1,6.9c0.6,0,1.3-0.1,2-0.1l0.1,2.1c-0.1,1,0,1.9,0.1,2.6
	c0.1,1.4,0.3,2.7,0.7,3.8c0.9,2.5,2.1,4.2,3.7,5.2l1.3,0.8l-0.6-1.4c-1.6-3.5-2.5-6.7-2.6-9.6c0-1.2,0-2.4,0.2-3.8
	c7-1.9,12.3-3.9,15.8-5.8c2.7-1.5,6.5-4.3,11.3-8.3c-2.3,4.1-4.5,8.3-6.7,12.7c-3.5,6.9-7.8,12.8-12,18.5
	c-5.6,7.6-11.4,15.4-14.9,25.4c-1.2-0.9-2.3-1.3-3.2-1.3c-1.6,0.1-2.6,1.6-2.6,3.9c0.1,1.9,0.9,4,2.5,4.3l0.2,1.1l1,0.6L8.9-9
	C7.3-9.6,4-10.7,2.7-10.9L2.2-11l0.1,1.7l0.2,0.1c1.5,1,3.1,2,4.8,2.8C3.6-3,1.7,0.3,1.8,3.2c0.1,2.3,1.3,4.5,3.7,6.4l0.1,0.1h1.9
	L7.2,13l-0.8,1.9l-0.5,4.3l3,1.5l3.3,3.7l0.8,2.1l0.4,6.5l0.9,1.7l-0.9,0.9l1.5,3.6c-3.1,2-5.1,4.5-5.8,7.6c-0.5,2-0.2,4.1,0.9,6.1
	c5.5,10,16.1,14.9,31.4,14.4c1.1,0,2.3-0.1,3.4-0.2c3.9-0.3,8.8-1,14.6-1.9c2.1-0.3,3.8-0.8,5.1-1.4l5-2.3c3.6,4,6.2,7.1,7.8,9.3
	l0.8-0.5c-1.3-2.6-3.4-5.9-6.4-9.9c9.2-4.1,16-10.2,20.3-18.1c3.2-6,4.8-11.9,4.6-17.7c-0.1-4-1.5-8-4-11.8
	C87.2,4.6,79.7,0.6,70.3,0.9c-5.6,0.2-10.4,1.6-14,4.1c-1.9,1.3-3.7,3.2-5.2,5.7L49.7,13l2.1-1.6c1.3-1,2.4-1.9,3.2-2.5
	c0.8-0.7,1.7-1.2,2.5-1.7c2.8-1.5,5.9-2.4,9.3-2.8c2.5-0.3,5.1,0.3,7.8,1.7c6.9,3.5,10.5,9.3,10.7,17.2c0.2,14.4-5.5,25.3-17.1,32.6
	c-4.7-5-9.9-9.1-15.7-12.2c-9.1-5-16.9-7.7-23.1-8l-0.3-0.6l-1.6-2.5l0.9-5.1l1-2.1l3-6.1l3.2-0.7l-1.2-6.4l-0.6-2.8l0.1-0.1
	c0.9,1.9,2.1,3.6,3.5,5.1c4.6,4.7,10.4,7,17.1,6.8c0.8,0,1.6-0.1,2.4-0.2c5.4-0.6,9-3.2,10.7-7.7l1.2-3.2l-2,2.7
	c-2,2.7-4.2,4.3-6.4,4.9c-2.2,0.6-4.5,0.9-6.8,1c-1.3,0-2.6,0-3.9-0.1c-3.4-0.3-6.4-1.8-9-4.4c-2.3-2.3-4-4.8-5.1-7.2
	c2.3-3.1,2.6-6.2,0.9-9.2c2.6-0.4,5.1-0.9,7.6-1.6c7.3-2,14.2-5.6,20.3-10.5c1.9-1.5,3.8-3.2,5.6-5.1l7.3,0.3c3.2,0.1,6.5,0.1,9.8,0
	c1.7-0.1,3.3-0.1,5-0.3c10.6-0.7,17.8-3.8,21.3-9.2l0.8-1.3L112.8-29.1z M21.6,27l0.5,3.6l-0.7,2.5l0.3,3l-0.9-0.7l-1.6-1.5l0.1-5.8
	l0.6-2.8l0.7-1.5l0.9,1.4L21.6,27L21.6,27L21.6,27z M14.3,54.6c-0.7-1.4-0.6-2.8,0.2-4.3c2.9-5.2,7.3-7.9,13.1-8.1
	c4.1-0.1,10.5,1,19,3.4c6.7,1.9,13.2,5.9,19.3,11.9c-7.3,4-15.4,6.4-24.2,7.1c-0.9,0.1-1.8,0.1-2.6,0.2c-7.2,0.2-13.4-1.2-18.6-4.2
	C17.4,58.8,15.3,56.8,14.3,54.6z M29.1-9.7l1.2-0.2l0.8-1.3l-1.5-1.1l0,0v-0.1c0.6,0.7,1.2,1,1.8,1c1.5,0,2.1-2.2,2.1-4.2
	c0-1.1-0.3-2.1-0.7-2.9c-0.5-1-1.3-1.5-2.1-1.4c-0.7,0-1.4,0.4-2.2,1.1c-1.1-7.1,2.3-14.4,5.9-22.1c1.3-2.8,2.7-5.8,3.9-8.8l15-37.4
	l-2,0.1l-0.1,0.2c-5.2,6.9-9.5,11.7-12.5,14.2c-5.2,4.1-12.3,7.5-21.2,9.9c1.4-5.9,4.2-11.2,8.4-15.6c7.5-8,14.8-12.1,21.9-12.4
	c1.7-0.1,3.6,0.1,5.9,0.6C61.2-88.6,67-84.7,71-78.7c3.6,5.5,5.5,12.4,5.8,20.5c0.4,10.7-3.2,20.7-10.5,29.9l0,0
	c-1.7,0.1-3.1,0.2-4.3,0.3c-11.3,1.4-19.9,5.9-25.7,13.2c-2,2.5-3.4,5.3-4.2,8.4c-0.5-0.4-1-0.7-1.5-1.1L30-9.1l-0.9-0.4V-9.7z
	 M58.3-19.6C51.2-12.9,43.5-8.4,35.5-6.3C38.9-14.6,46.6-19.1,58.3-19.6z"/>
<path class="st1" d="M113.8,65.9c-3.7,1.4-7.7,2.2-11.7,2.3c-4.3,0.1-8.5,0-12.3-0.6c-3.2-0.3-6.6-0.7-10.7-1.2
	c1.6-2.2,3-4.4,4.3-6.7c4.1-7.5,6.2-15.4,6.1-23.5c0-2.8-0.3-5.7-0.8-8.6C87,18.2,81.8,11.1,73.3,6.7C67.8,3.9,62,2.5,55.9,2.6
	c-9.3,0.1-17.5,3.7-24.5,10.5c-4.5,4.5-8.4,11.3-11.6,20.3c-0.3,0-0.7,0-1,0c-2.5,0-4.7-0.5-6.4-1.7c-2.9-1.9-4.3-3.7-4-5.3
	c0.2-1.4,0.8-2.3,1.6-2.8c1.5-0.9,5.5-1.4,12-1.5h2.3l-2.1-0.8c-3-1.2-5.7-1.8-7.9-2c-2.3-0.1-5,0.4-7.9,1.6c-1.7,0.7-3,1.7-3.9,3.1
	c-1.2,1.7-1.3,3.3-0.5,4.9c2.4,4.6,7.5,6.8,15.4,6.7c0.6,0,1.2,0,1.9-0.1v1.9c-0.1,1-0.1,1.8,0,2.4c0,1.3,0.2,2.5,0.6,3.6
	c0.8,2.3,2,4,3.5,4.9l1.3,0.8l-0.6-1.3c-1.5-3.3-2.3-6.3-2.3-8.9c0-1.1,0.1-2.3,0.3-3.5c6.8-1.7,12-3.4,15.4-5.1
	c2.6-1.3,6.4-3.8,11.1-7.5c-2.3,3.7-4.6,7.7-6.8,11.7c-3.5,6.3-7.9,11.7-12.1,17c-5.6,6.9-11.4,14.1-15,23.3
	c-1.1-0.8-2.2-1.3-3.1-1.3C10,73.5,9,74.9,9,77.1c0,1.8,0.8,3.7,2.3,4l0.2,1l0.9,0.6l0.4,0.2c-1.5-0.5-4.7-1.7-5.9-1.8L6.4,81v1.6
	l0.2,0.1c1.4,1,2.9,1.9,4.6,2.7c-3.7,3.1-5.6,6.1-5.6,8.8c0,2.2,1.2,4.2,3.5,6l0.1,0.1h1.9l-0.4,3l-0.8,1.8l-0.6,4l2.8,1.4l3.1,3.5
	l0.8,2l0.2,6l0.9,1.6l-0.9,0.8l1.4,3.4c-3.1,1.8-5,4.1-5.8,6.9c-0.5,1.9-0.3,3.8,0.7,5.7c5.1,9.4,15.2,14.1,30,13.9
	c1.1,0,2.2-0.1,3.3-0.1c3.8-0.2,8.6-0.7,14.2-1.5c2.1-0.3,3.7-0.7,4.9-1.2l4.9-2c3.4,3.8,5.8,6.7,7.3,8.7l0.8-0.4
	c-1.2-2.4-3.2-5.5-6-9.3c8.9-3.6,15.7-9.2,20-16.4c3.3-5.5,4.9-11,4.8-16.3c0-3.7-1.2-7.4-3.6-11c-5-7.7-12.2-11.6-21.3-11.5
	c-5.5,0.1-10,1.3-13.6,3.5c-1.9,1.2-3.6,2.9-5.1,5.2l-1.4,2.1l2.1-1.5c1.3-1,2.3-1.7,3.1-2.3c0.8-0.6,1.6-1.1,2.4-1.5
	c2.7-1.3,5.8-2.1,9-2.4c2.4-0.2,4.9,0.4,7.5,1.7c6.6,3.4,9.9,8.8,9.9,16.1c-0.1,13.3-5.9,23.4-17.3,29.9c-4.4-4.7-9.4-8.6-14.9-11.6
	c-8.7-4.8-16.1-7.4-22.2-7.8l-0.3-0.5l-1.5-2.3l1-4.7l1-1.9l3-5.6l3.1-0.6l-1-6l-0.5-2.6l0.1-0.1c0.8,1.8,1.9,3.4,3.3,4.8
	c4.3,4.4,9.9,6.7,16.4,6.6c0.7,0,1.5-0.1,2.3-0.1c5.2-0.5,8.8-2.8,10.6-7l1.3-2.9l-2,2.5c-2,2.4-4.1,3.9-6.3,4.4
	c-2.2,0.5-4.4,0.8-6.6,0.8c-1.2,0-2.5,0-3.7-0.2c-3.3-0.3-6.2-1.8-8.6-4.2c-2.2-2.2-3.8-4.5-4.8-6.8c2.3-2.8,2.7-5.7,1.1-8.5
	c2.5-0.3,5-0.8,7.4-1.4c7.4-1.9,14.2-5,20.1-9.5c1.9-1.4,3.7-2.9,5.5-4.6l7.1,0.4c3.1,0.2,6.3,0.2,9.5,0.2c1.6,0,3.2-0.1,4.9-0.1
	c10.3-0.5,17.3-3.2,20.8-8.1l0.8-1.2L113.8,65.9z M24.4,116.4l0.4,3.4l-0.8,2.3l0.3,2.8l-0.8-0.7l-1.5-1.4l0.3-5.4l0.7-2.6l0.7-1.4
	l0.9,1.3l-0.1,1.5L24.4,116.4L24.4,116.4z M16.7,141.9c-0.6-1.3-0.5-2.6,0.3-4c2.9-4.7,7.2-7.2,12.8-7.3c4-0.1,10.1,1.1,18.2,3.5
	c6.4,1.9,12.6,5.7,18.4,11.4c-7.2,3.6-15.1,5.7-23.5,6.2c-0.9,0.1-1.7,0.1-2.5,0.1c-6.9,0.1-13-1.3-17.9-4.3
	C19.6,145.8,17.6,143.9,16.7,141.9z M32.5,82.5l1.2-0.1l0.8-1.2l-1.5-1l0,0v-0.1c0.6,0.6,1.2,0.9,1.7,0.9c1.5,0,2.1-2,2.1-3.9
	c0-1-0.2-2-0.6-2.7c-0.5-0.9-1.2-1.4-2-1.4c-0.7,0-1.4,0.3-2.2,1c-0.8-6.6,2.7-13.3,6.3-20.4c1.4-2.6,2.8-5.3,4-8.1l15.3-34.4h-1.9
	l-0.1,0.2c-5.2,6.3-9.4,10.7-12.4,12.9c-5.1,3.7-12.1,6.7-20.8,8.8c1.5-5.5,4.3-10.3,8.4-14.3c7.4-7.3,14.6-11,21.5-11.1
	c1.6,0,3.5,0.2,5.7,0.6c7.2,1.5,12.7,5.2,16.5,10.9c3.3,5.1,5,11.6,5.1,19.2c0.1,9.9-3.5,19.2-10.8,27.6l0,0c-1.6,0-3,0.1-4.1,0.2
	c-10.9,1.1-19.4,5.1-25.1,11.8c-2,2.3-3.4,4.9-4.2,7.7c-0.4-0.3-0.9-0.7-1.4-1l-0.6-1.5l-0.9-0.4L32.5,82.5z M60.9,73.8
	c-7,6.1-14.5,10.1-22.3,12C42.1,78.1,49.6,74,60.9,73.8z"/>
</svg>
